<svg xmlns="http://www.w3.org/2000/svg" viewBox="0 0 90 90">

   <defs>
      <!-- Bandera francesa -->
      <g class="bil Francés" fill-opacity="1" stroke-width="0">
         <rect x="2" y="4" width="12" height="24" fill="#004dff" />
         <rect x="14" y="4" width="12" height="24" fill="#fff" />
         <rect x="26" y="4" width="12" height="24" fill="#ff1924" />
      </g>

      <!-- Bandera alemana -->
      <g class="bil Alemán" fill-opacity="1" stroke-width="0">
         <rect x="2" y="4" width="36" height="8" fill="#000" />
         <rect x="2" y="12" width="36" height="8" fill="#f00" />
         <rect x="2" y="20" width="36" height="8" fill="#fc0" />
      </g>

      <!-- Bandera Reino Unido -->
      <g class="bil Inglés" fill-opacity="1" stroke-width="0">
         <rect x="2" y="4" width="36" height="24" fill="#00f" />
         <path d="M 2 4 h 3 L 38 25 v 3 h -3 L 2 7 z" fill="#fff" />
         <path d="M 2 4 L 20 16 v 2 L 2 6 z" fill="#f00" />
         <path d="M 38 28 L 20 16 v -2 L 38 26 z" fill="#f00" />
         <path d="M 38 4 h -3 L 2 25 v 3 h 3 L 38 7 z" fill="#fff" />
         <path d="M 38 4 L 20 16 h -2 L 36 4 z" fill="#f00" />
         <path d="M 2 28 L 20 16 h 2 L 4 28 z" fill="#f00" />
         <rect x="17" y="4" width="6" height="24" fill="#fff" />
         <rect x="18" y="4" width="4" height="24" fill="#f00" />
         <rect x="2" y="13" width="36" height="6" fill="#fff" />
         <rect x="2" y="14" width="36" height="4" fill="#f00" />
      </g>

      <!-- Bandera azul -->
      <g class="bil multi" fill-opacity="1" stroke-width="0">
         <rect x="2" y="4" width="36" height="24" fill="#001489" />
      </g>

      <!-- Tipo de centro: compensatoria o difícil desempeño -->
      <!-- dificil #c13 -->
      <circle class="tipo" cx="69" cy="74" r="9" fill="#13b" />
   </defs>

   <g class="content">
      <path d="M 44 80.30127 a 25 25 0 0 0 -12.5 -21.650635 a 25 25 0 1 1 25 0 a 25 25 0 0 0 -12.5 21.650635" fill="black" stroke-width="0" fill-opacity="1"/>
      <!-- Oferta (izquierda) y plazas (derecha)
        -  El color cambia según la cantidad de oferta y de plazas. 0 = negro.
        -  Cuando no hay plazas, el color de las plazas = oferta.
        -->
      <g class="ofervac" fill-opacity="1">
         <!--
         <path d="M 44 57 a 20 20 0 1 1 0 -40 Z" stroke-width="0" fill="green" />
         -->
         <circle cx="44" cy="37" r="20" fill="green" />
         <path d="M 44 17 a 20 20 0 1 1 0 40 Z" stroke-width="0" fill="yellow"  />
         <text x="53" y="45" fill="black" font-size="26" text-anchor="middle" font-family="sans-serif">8</text>
      </g>

      <!-- +, - o nada, dependiendo de la oferta -->
      <g display="none" class="ofervar" fill-opacity="0" stroke-width="6" stroke="black">
         <path d="M 62 14 h 20" />
         <path d="M 72 4 v 20" />
      </g>

   </g>
</svg>
